<svg id="Layer_1" data-name="Layer 1" xmlns="http://www.w3.org/2000/svg" viewBox="0 0 1022.3 876.91"><defs><style>.cls-1{fill:#231f20;}.cls-2{fill:#fbb040;}.cls-3{fill:#fff;}.cls-4{fill:#ed1c24;}.cls-5{fill:none;}</style></defs><path class="cls-1" d="M993.7,396.17a235,235,0,0,0-84.53-71.6c12.08-5.44,15-11.19,15.81-15,7.3-35.82-140.5-93.78-162.55-102.43a871.69,871.69,0,0,0-92.73-30.52c-30.47-25.82-58.35-39-77.82-46.2-31.65-11.72-52.6-12-126.45-21.88-34.38-4.63-62.22-8.93-79.82-11.74q5.86,24.06,11.74,48.13-35.84-6-74-14.09-31.51-6.69-61-14.09a121.58,121.58,0,0,0-8.22,47,120.1,120.1,0,0,0,3.52,25.83,538.6,538.6,0,0,0-156.13,103.3A530.24,530.24,0,0,0,40,362.75H88.61c-12,44.64-42.79,182,20,337.47,70.7,175.13,212,253.88,250,273.52-1-78.12,32.95-147.69,91.56-178.44,31.39-16.46,102-38.68,143.22,2.35,34.52,34.39,24.91,89.87,23.48,97.44C734.13,905.82,835.93,868,874,794.13c7.76-15.08,15.22-36.24,16.43-64.56a84.54,84.54,0,0,0,25.83-99.79,114.91,114.91,0,0,0,86.87-62.21,98.33,98.33,0,0,0,43.43-82.18c11.38-7.88,14.33-15.55,15.26-20C1066.39,443.66,1040.25,413.77,993.7,396.17ZM795.7,834c-58,41.56-121.13,31.49-133.05,29.35C657.54,846,643.36,806.45,605.52,773,556.1,729.31,499.66,725.41,483,724.87a236.25,236.25,0,0,1,1.18-199.57A191.39,191.39,0,0,0,444.3,682.61l-106.82-88a247.2,247.2,0,0,1,5.09-57.14c5.84-28,14.9-46.51,26-69.57L510,477l-37.56,16.43,113.33,56A391,391,0,0,0,540,599.26a74.66,74.66,0,0,1,39.3,30.52l-38.88-4.09a521.27,521.27,0,0,0,80,73.74c49.92,37.16,96,71.42,156.34,69.19,35.5-1.32,64.41-14.83,84.31-27.32C856.72,756.06,841.39,801.32,795.7,834Z" transform="translate(-40 -96.83)"/><path class="cls-2" d="M316.35,919.74a322.84,322.84,0,0,1,1.17-170.22,133.28,133.28,0,0,0-44.61,101A191.83,191.83,0,0,1,246,757.7c-1.59-65.32,31.58-110.92,42.2-124.4l91.57,27L294,613.35a576.72,576.72,0,0,1,18.79-84.52c31.65-104.57,75.44-141.08,57.52-184.68-8.18-19.93-18.52-15.18-59.87-63a550.31,550.31,0,0,1-45.78-61A457.36,457.36,0,0,0,103.87,337.48l35.22,2.35C121.67,386.91,95.42,478.58,113.26,591,144,785,282.8,894.65,316.35,919.74Z" transform="translate(-40 -96.83)"/><path class="cls-3" d="M861,741.3c-4.32,14.76-19.65,60-65.34,92.74-58,41.56-121.13,31.49-133.05,29.35C657.54,846,643.36,806.45,605.52,773,556.1,729.31,499.66,725.41,483,724.87a236.25,236.25,0,0,1,1.18-199.57A191.39,191.39,0,0,0,444.3,682.61l-106.82-88a247.2,247.2,0,0,1,5.09-57.14c5.84-28,14.9-46.51,26-69.57L510,477l-37.56,16.43,113.33,56A391,391,0,0,0,540,599.26a74.66,74.66,0,0,1,39.3,30.52l-38.88-4.09a521.27,521.27,0,0,0,80,73.74c49.92,37.16,96,71.42,156.34,69.19C812.23,767.3,841.14,753.79,861,741.3Z" transform="translate(-40 -96.83)"/><path class="cls-2" d="M903.7,461.52a51.41,51.41,0,0,0-.4,35.61c14.51-11.45,32.9-14.47,47.35-7.43a40.1,40.1,0,0,1,17.22,16.82c-5,11.72-14.47,28.48-32.09,38.74-61.73,36-141.14-56.18-238.63-49.12-29.93,2.17-68.09,14.17-111.38,53.25l-113.33-56L510,477l-141.44-9.13c4.81-10,10-20.86,15.48-33.73a579.78,579.78,0,0,0,28.57-84.91,172.37,172.37,0,0,0,119.74-32.87,102.8,102.8,0,0,1-52.05,14.53A101.25,101.25,0,0,1,442,323.39,171.89,171.89,0,0,0,551.15,264.7a255.21,255.21,0,0,0-47.37-27.79c-41.49-18.63-69.26-17.52-132.26-32.08-14.94-3.46-37.37-9.07-64.56-17.61a167.55,167.55,0,0,0,105.65,91.56c-27.48,13.51-47.36,10-55.14,8.05-42-10.72-74.16-65.71-68.9-135.22A776.85,776.85,0,0,0,381.7,168c66.16,7.58,91.06,1.84,130.69,14.09,24.31,7.52,58.36,23.1,94.7,59.48A57.83,57.83,0,0,0,603.6,209c-8.32-19.72-25.13-28.05-29.38-30a426.51,426.51,0,0,1,191.87,66.65l-28.31.65a350.09,350.09,0,0,1,151.44,53.61,14.58,14.58,0,0,1-3.52,10.57,14.4,14.4,0,0,1-9.4,4.69,42.06,42.06,0,0,0-14.08-18.78,41.4,41.4,0,0,0-15.26-7,77.6,77.6,0,0,1,9.39,43.43A153.57,153.57,0,0,1,892,342.57a157.61,157.61,0,0,1,58.3,41.86L928,383.26a283.33,283.33,0,0,1,82.17,66.91,120.71,120.71,0,0,1-84.52-14.08A51.17,51.17,0,0,0,903.7,461.52Z" transform="translate(-40 -96.83)"/><path class="cls-3" d="M969,547.61a68.05,68.05,0,0,0,44.61-22.31q2.94-17,5.87-34A65.71,65.71,0,0,0,969,547.61Z" transform="translate(-40 -96.83)"/><path class="cls-3" d="M593.78,611.78l85.31,14.87-6.26,18.78a52.77,52.77,0,0,0,11.74,4.7,56,56,0,0,0,30.52-.78Q712,657.18,708.83,665a42.54,42.54,0,0,0,14.87,5.48c14,2.3,25.09-3.29,28.95-5.48L737,697.87a95.57,95.57,0,0,0,72-35.22c13.83,35.38,1.9,70.52-21.13,82.18-13.08,6.62-34,7.8-50.09-3.92-12.38-9-16.65-21.77-18-26.61-12.46,4.2-25.76,1.08-33.65-7.82-7.69-8.68-7.21-19.46-7-21.91-16.72,6.58-33,.43-37.57-10.18-3.86-8.86,1.36-18.58,2.35-20.35-4.67-.34-22.73-2.24-36.78-17.21A55,55,0,0,1,593.78,611.78Z" transform="translate(-40 -96.83)"/><path class="cls-3" d="M695.52,519.43A262.63,262.63,0,0,1,773.78,528c48.15,12.93,64.83,32.66,106.44,40.7,20.09,3.88,49.88,5.79,88.82-5.48a134.23,134.23,0,0,1-52,43.83q-2.75-9.39-5.48-18.79L888,589.87a166.95,166.95,0,0,1-67.3,31.3,57,57,0,0,0,15.65-28.95,53.69,53.69,0,0,0,.78-14.87l-33.65,2.35a27.08,27.08,0,0,0,.78-11,27.75,27.75,0,0,0-7-14.87l-29,11A41,41,0,0,0,762.83,550c-5.32-8.63-15.24-17.12-18.33-15.12a1.58,1.58,0,0,0-.46.44c-3.13,5.29-23.47,12.33-23.47,12.33a49.36,49.36,0,0,0-7.05-13.31A50,50,0,0,0,695.52,519.43Z" transform="translate(-40 -96.83)"/><path class="cls-4" d="M616.48,555.43a92.48,92.48,0,0,1,18.41,43.33l60.63,18.5v19.57l37.57-3.92v18l60.26,9.39c-27.68-12.19-38.85-26.82-43.83-38.34-3.9-9-5.66-20-16.43-50.87-1.62-4.63-3-8.42-3.92-11q-4.3,5-8.6,10.07l-16.23-14.77c-2-2.5-4.62-5.32-6.47-4.69-4,1.36-2.07,18.32,0,28.17a103.06,103.06,0,0,0,13.3,32.87,139.43,139.43,0,0,1-26.6-26.61c-15.87-21-18.21-37.07-36.79-47.74-10.55-6-16.19-4.53-18-3.91C618.66,537.36,616.61,554.24,616.48,555.43Z" transform="translate(-40 -96.83)"/><path class="cls-1" d="M573.43,317.52A196.48,196.48,0,0,1,633.7,298a198.56,198.56,0,0,1,91.56,7.82,125.84,125.84,0,0,0,52.44,47.74A30.09,30.09,0,0,0,791,342.57c8.4-12.8,3-27.33,2.35-29,1.11.21,22.92,4.79,30.59,25.8,7,19.07-3.7,35.25-4.77,36.81l67.31,40.69a82.13,82.13,0,0,0,8.61,83c-33.26-5.72-46.22-17.66-51.66-28.17-4.19-8.12-4.85-17.22-14.08-29.74-1.52-2.06-9.53-12.92-18.78-18-23.86-13.11-49.6,15.64-87.67,18.89-16.31,1.4-41.27-1.34-73.83-24.37,4.81,1.19,61.64,14.59,80.89-12.52a32.23,32.23,0,0,0,4.3-8.61c-7.2,2.37-37,11.28-70-3.13-30.17-13.15-44-37.36-47.74-44.61a224.35,224.35,0,0,0,36,5.48,226.22,226.22,0,0,0,67.3-5.48,354.49,354.49,0,0,0-146.35-32.09Z" transform="translate(-40 -96.83)"/><line class="cls-5" x1="546.55" y1="452.94" x2="545.77" y2="452.56"/><line class="cls-5" x1="328.56" y1="371.03" x2="328.38" y2="371.02"/><path class="cls-1" d="M259.47,320.06A60,60,0,0,0,240.74,331a57.89,57.89,0,0,0-6.12,6.13c-.88,4.65-2.33,11.5-4.7,19.66-3.41,11.7-5.36,14.59-6,19.27-1,7.37,1.52,18.19,17.13,33.12,5.34-16.49,11-20.74,15.33-21.33s6.91,2.54,10.93.77c5.45-2.39,4-9.52,10.18-13.37,5-3.08,9.85-.94,10.38-2.61,1-3.17-17.63-7.38-23.66-20.88-2.66-6-2.07-12-1.36-15.66" transform="translate(-40 -96.83)"/><path class="cls-1" d="M154.67,411.34a100.52,100.52,0,0,1-1.15,40,99.9,99.9,0,0,1-13.7,32,43.17,43.17,0,0,1,17.13,8c14.9,11.59,16.81,29.36,17.13,33.11a222,222,0,0,1,26.26-20.55c13.51-9,19.62-11,20.55-16,1.13-6-5.34-15.74-37.68-32" transform="translate(-40 -96.83)"/><path class="cls-1" d="M201.38,564.65c-18.88,13.08-21.73,20.39-20.55,24.69,1.85,6.77,13.69,6.13,19.41,15.28,5.22,8.34,2.18,19.73-1.37,28.29a59.05,59.05,0,0,0,4.8,11.67,62.34,62.34,0,0,0,21.42,22.72c33.49-20.08,41.41-27.89,40.17-30.64s-11.11,2.11-17.37-3.06c-9.33-7.72,2.68-26.82-5.78-43.92-4.67-9.42-13.77-14.65-21.45-17.7" transform="translate(-40 -96.83)"/></svg>